# xmcd
#
# Track frame offsets: 
#        150
#        31951
#        69366
#        82294
#        97758
#        120899
#        135990
#        143259
#        165093
#        177797
#        187729
#        207765
#        214014
#        225999
#        235262
#        246364
#        259241
#
# Disc length: 3663 seconds
#
# Revision: 0
# Processed by: cddbd v1.5.2PL0 Copyright (c) Steve Scherf et al.
# Submitted via: ExactAudioCopy v1.0b1
#
DISCID=ca0e4d11
DTITLE=Elvis Presley  - From Sunset to Las Vegas CD 2
DYEAR=1900
DGENRE=
TTITLE0=If You Love Me - Ver. 3
TTITLE1=If You Love Me - Ver. 4
TTITLE2=The Twelth Of Never
TTITLE3=Faded Love
TTITLE4=Just Pretend
TTITLE5=Trying To Get To You
TTITLE6=Heartbreak Hotel
TTITLE7=Suspicious Minds
TTITLE8=Help Me
TTITLE9=The Wonder Of You
TTITLE10=An American Trilogy
TTITLE11=Elvis Talking
TTITLE12=Hawaiian Wedding Song
TTITLE13=Elvis Talking
TTITLE14=It's Now Or Never
TTITLE15=Bringing It Back
TTITLE16=Aubrey
EXTD=
EXTT0=
EXTT1=
EXTT2=
EXTT3=
EXTT4=
EXTT5=
EXTT6=
EXTT7=
EXTT8=
EXTT9=
EXTT10=
EXTT11=
EXTT12=
EXTT13=
EXTT14=
EXTT15=
EXTT16=
PLAYORDER=
